<?xml version="1.0" standalone="no"?>
<!DOCTYPE svg PUBLIC "-//W3C//DTD SVG 20010904//EN"
 "http://www.w3.org/TR/2001/REC-SVG-20010904/DTD/svg10.dtd">
<svg version="1.0" xmlns="http://www.w3.org/2000/svg"
 width="1229.000000pt" height="1280.000000pt" viewBox="0 0 1229.000000 1280.000000"
 preserveAspectRatio="xMidYMid meet">
<metadata>
Created by potrace 1.15, written by Peter Selinger 2001-2017
</metadata>
<g transform="translate(0.000000,1280.000000) scale(0.100000,-0.100000)"
fill="#000000" stroke="none">
<path d="M11690 12794 c-19 -2 -98 -9 -175 -14 -683 -52 -1022 -171 -1610
-563 -325 -217 -501 -365 -540 -454 -45 -100 -138 -224 -449 -599 -536 -644
-1531 -1960 -2573 -3404 -873 -1211 -1334 -1883 -1561 -2280 -112 -197 -197
-329 -296 -459 -88 -116 -291 -420 -526 -786 -402 -628 -586 -882 -778 -1078
-79 -81 -116 -107 -151 -107 -31 0 -136 104 -195 194 -71 107 -116 199 -241
490 -223 523 -492 1090 -574 1213 -54 80 -135 153 -197 177 -71 28 -346 34
-478 12 -264 -45 -564 -175 -846 -367 -288 -196 -457 -394 -491 -574 -42 -223
68 -688 482 -2035 289 -940 439 -1311 706 -1745 177 -289 163 -271 241 -294
93 -28 285 -67 451 -91 460 -67 1048 -11 1347 129 72 34 88 47 151 122 145
175 386 510 698 974 499 742 750 1103 826 1191 52 60 125 174 203 314 179 322
691 1072 1681 2460 1117 1567 2087 2873 2328 3136 71 78 144 176 322 434 212
306 326 458 455 600 158 176 346 406 683 840 452 582 690 878 892 1105 242
274 652 866 755 1090 65 142 75 221 35 281 -24 38 -108 71 -205 83 -77 10
-286 12 -370 5z"/>
</g>
</svg>
